<?xml version="1.0" encoding="UTF-8" standalone="no"?>
<!-- Created with Inkscape (http://www.inkscape.org/) -->

<svg
   xmlns:dc="http://purl.org/dc/elements/1.1/"
   xmlns:cc="http://creativecommons.org/ns#"
   xmlns:rdf="http://www.w3.org/1999/02/22-rdf-syntax-ns#"
   xmlns:svg="http://www.w3.org/2000/svg"
   xmlns="http://www.w3.org/2000/svg"
   xmlns:sodipodi="http://sodipodi.sourceforge.net/DTD/sodipodi-0.dtd"
   xmlns:inkscape="http://www.inkscape.org/namespaces/inkscape"
   width="1000"
   height="1986.8677"
   id="svg2"
   version="1.1"
   inkscape:version="0.48.5 r10040"
   sodipodi:docname="New document 1">
  <defs
     id="defs4" />
  <sodipodi:namedview
     id="base"
     pagecolor="#ffffff"
     bordercolor="#666666"
     borderopacity="1.0"
     inkscape:pageopacity="0.0"
     inkscape:pageshadow="2"
     inkscape:zoom="0.13962402"
     inkscape:cx="1965.3846"
     inkscape:cy="-491.65414"
     inkscape:document-units="px"
     inkscape:current-layer="flowRoot2998"
     showgrid="false"
     fit-margin-left="0.5"
     fit-margin-bottom="0.5"
     fit-margin-top="0.5"
     fit-margin-right="0.5"
     inkscape:window-width="1055"
     inkscape:window-height="1014"
     inkscape:window-x="857"
     inkscape:window-y="4"
     inkscape:window-maximized="0">
    <inkscape:grid
       type="xygrid"
       id="grid2996"
       empspacing="5"
       visible="true"
       enabled="true"
       snapvisiblegridlinesonly="true"
       originx="373.877px"
       originy="-219.93014px" />
  </sodipodi:namedview>
  <metadata
     id="metadata7">
    <rdf:RDF>
      <cc:Work
         rdf:about="">
        <dc:format>image/svg+xml</dc:format>
        <dc:type
           rdf:resource="http://purl.org/dc/dcmitype/StillImage" />
        <dc:title></dc:title>
      </cc:Work>
    </rdf:RDF>
  </metadata>
  <g
     inkscape:label="Layer 1"
     inkscape:groupmode="layer"
     id="layer1"
     transform="translate(373.877,1154.4356)">
    <g
       transform="matrix(4.8381936,0,0,4.8381936,2734.8092,4477.1494)"
       style="font-size:40px;font-style:normal;font-weight:normal;line-height:125%;letter-spacing:0px;word-spacing:0px;fill:#000000;fill-opacity:1;stroke:none;font-family:Sans"
       id="flowRoot2998">
      <path
         d="m -626.01588,-1163.5491 0,32.5607 c -2e-5,4.2516 -1.26234,7.5847 -3.78694,9.9991 -2.52466,2.4145 -6.26766,3.6217 -11.22905,3.6217 l -1.39513,0 0,-7.1095 1.32822,0 c 2.43608,0 4.27428,-0.5316 5.51464,-1.5949 1.24035,-1.0632 1.86052,-2.7689 1.86053,-5.1172 l 0,-25.516 -7.17644,0 0,-6.8439 z"
         style="fill:#000000;stroke:none;font-family:Juventus Fans Bold;-inkscape-font-specification:Juventus Fans Bold"
         id="path3007"
         inkscape:connector-curvature="0" />
      <path
         d="m -611.96109,-1123.7471 7.10954,0 0,-39.802 7.70773,0 0,39.1389 c -4e-5,4.9168 -2.56928,7.3752 -7.70773,7.3752 l -7.10954,0 c -5.13848,0 -7.70772,-2.4584 -7.70772,-7.3752 l 0,-39.1389 7.70772,0 z"
         style="fill:#000000;stroke:none;font-family:Juventus Fans Bold;-inkscape-font-specification:Juventus Fans Bold"
         id="path3009"
         inkscape:connector-curvature="0" />
      <path
         d="m -583.00115,-1124.8766 c 1.994,0 3.622,-1.0078 4.884,-3.0235 1.26196,-2.0156 1.89294,-4.4848 1.89296,-7.4076 l 0,-28.2414 7.70977,0 0,28.5071 c -3e-5,5.6698 -1.62803,10.0329 -4.88401,13.0895 -3.25601,3.0566 -7.89667,4.5849 -13.92196,4.5849 l -3.78797,0 0,-46.1815 7.70772,0 0,38.6725 0.39949,0 z"
         style="fill:#000000;stroke:none;font-family:Juventus Fans Bold;-inkscape-font-specification:Juventus Fans Bold"
         id="path3011"
         inkscape:connector-curvature="0" />
      <path
         d="m -543.83937,-1156.5044 -10.76568,0 0,12.2257 8.90415,0 -1.32822,6.7769 -7.57593,0 0,13.0916 11.29698,0 -1.32822,7.0426 -17.67648,0 0,-46.1815 17.14518,0 z"
         style="fill:#000000;stroke:none;font-family:Juventus Fans Bold;-inkscape-font-specification:Juventus Fans Bold"
         id="path3013"
         inkscape:connector-curvature="0" />
      <path
         d="m -523.82354,-1146.5377 0,-17.0114 7.37517,0 0,46.1815 -7.37517,0 0,-15.748 -7.24336,-15.748 -0.39745,0 0,31.496 -7.37719,0 0,-46.1815 7.24336,0 7.31027,17.0114 z"
         style="fill:#000000;stroke:none;font-family:Juventus Fans Bold;-inkscape-font-specification:Juventus Fans Bold"
         id="path3015"
         inkscape:connector-curvature="0" />
      <path
         d="m -491.38136,-1163.5491 1.32822,7.2434 -7.44209,0 0,38.9381 -7.70773,0 0,-38.9381 -7.44208,0 1.32822,-7.2434 z"
         style="fill:#000000;stroke:none;font-family:Juventus Fans Bold;-inkscape-font-specification:Juventus Fans Bold"
         id="path3017"
         inkscape:connector-curvature="0" />
      <path
         d="m -478.43828,-1123.7471 7.10953,0 0,-39.802 7.70773,0 0,39.1389 c -4e-5,4.9168 -2.56928,7.3752 -7.70773,7.3752 l -7.10953,0 c -5.13849,0 -7.70773,-2.4584 -7.70773,-7.3752 l 0,-39.1389 7.70773,0 z"
         style="fill:#000000;stroke:none;font-family:Juventus Fans Bold;-inkscape-font-specification:Juventus Fans Bold"
         id="path3019"
         inkscape:connector-curvature="0" />
      <path
         d="m -450.29438,-1132.6512 0,9.1698 6.57824,0 0,-6.3775 c -2e-5,-1.5506 -0.22139,-2.7467 -0.66411,-3.5883 -0.44276,-0.8415 -1.26234,-1.6611 -2.45872,-2.4587 l -6.91081,-4.5849 c -1.2843,-0.8422 -2.25865,-1.9277 -2.92309,-3.2566 -0.66446,-1.3289 -0.99668,-2.6801 -0.99668,-4.0536 l 0,-8.6386 c 0,-2.3468 0.6756,-4.1738 2.0268,-5.4811 1.35119,-1.3073 3.04544,-1.961 5.08273,-1.961 l 7.10952,0 c 2.52529,0 4.34188,0.6095 5.44976,1.8281 1.10784,1.2188 1.66177,3.0685 1.6618,5.5492 l 0,6.0458 -7.50902,1.9934 0,-9.1687 -6.5113,0 0,6.9757 c -2e-5,1.1964 0.22135,2.1822 0.66411,2.9575 0.44272,0.7753 1.21768,1.5172 2.32488,2.2255 l 6.57823,4.3193 c 3.01197,1.994 4.51795,4.7404 4.51799,8.239 l 0,9.038 c -4e-5,2.3469 -0.66448,4.0742 -1.99335,5.1821 -1.32891,1.1079 -3.07824,1.6618 -5.24799,1.6618 l -6.64516,0 c -2.61453,0 -4.55279,-0.5428 -5.81476,-1.6284 -1.26198,-1.0855 -1.89297,-2.8463 -1.89297,-5.2824 l 0,-8.7054 z"
         style="fill:#000000;stroke:none;font-family:Juventus Fans Bold;-inkscape-font-specification:Juventus Fans Bold"
         id="path3021"
         inkscape:connector-curvature="0"
         sodipodi:nodetypes="ccccccccsscssccccccccccsccsssscc" />
      <path
         style="fill:#000000;stroke:none"
         d="m -642.29756,-1044.7807 0,-36.3949 124.29224,0 0,168.24085 c 0,54.91221 -15.73065,75.20452 -93.40817,109.31797 -10.19619,-12.57937 -16.11389,-22.8712 -20.94761,-35.0219 31.76163,-14.32599 41.60107,-20.29993 41.60107,-20.29993 24.45686,-14.77574 30.86616,-23.82457 30.86616,-61.3402 l 0,-124.50189 z"
         id="path3023"
         inkscape:connector-curvature="0"
         sodipodi:nodetypes="cccccccccc" />
    </g>
    <path
       style="fill:#000000;stroke:none"
       d="m 421.29693,-753.78755 204.32607,0 0,892.05773 c 0,198.36232 -61.02781,371.38439 -192.49591,496.67839 C 365.42516,701.74161 248.71578,776.90332 126.31632,831.93204 38.173567,789.41768 -3.2900073,766.62316 -70.830256,723.41312 262.63357,561.24466 421.29693,457.34524 421.29693,85.112175 z"
       id="path3025"
       inkscape:connector-curvature="0"
       sodipodi:nodetypes="cccccccc" />
  </g>
</svg>
